<svg width="798" height="263" viewBox="0 0 798 263" fill="none" xmlns="http://www.w3.org/2000/svg">
<path d="M773.919 160.02L796.112 174.815C788.909 185.425 771.681 203.627 741.896 203.627C704.908 203.627 677.362 175.01 677.362 138.606C677.362 99.8667 705.2 73.5859 738.781 73.5859C772.557 73.5859 789.104 100.451 794.457 114.954L797.377 122.351L710.359 158.366C716.978 171.409 727.295 178.028 741.896 178.028C756.496 178.028 766.619 170.825 773.919 160.02ZM705.687 136.562L763.796 112.423C760.584 104.344 751.045 98.6013 739.657 98.6013C725.154 98.6013 705.005 111.45 705.687 136.562Z" fill="#FF302F"/>
<path d="M635.41 7.30078H663.443V197.69H635.41V7.30078Z" fill="#20B15A"/>
<path d="M591.219 78.6471H618.279V194.282C618.279 242.269 589.954 262.028 556.47 262.028C524.933 262.028 505.953 240.809 498.847 223.581L523.668 213.263C528.146 223.873 538.95 236.429 556.47 236.429C577.982 236.429 591.219 223.094 591.219 198.176V188.832H590.246C583.822 196.618 571.557 203.627 555.984 203.627C523.473 203.627 493.689 175.302 493.689 138.801C493.689 102.105 523.473 73.4883 555.984 73.4883C571.46 73.4883 583.822 80.3991 590.246 87.9914H591.219V78.6471ZM593.166 138.801C593.166 115.829 577.884 99.0877 558.417 99.0877C538.755 99.0877 522.208 115.829 522.208 138.801C522.208 161.48 538.755 177.93 558.417 177.93C577.884 178.027 593.166 161.48 593.166 138.801Z" fill="#3686F7"/>
<path d="M339.8 138.315C339.8 175.79 310.599 203.336 274.78 203.336C238.96 203.336 209.759 175.692 209.759 138.315C209.759 100.646 238.96 73.1973 274.78 73.1973C310.599 73.1973 339.8 100.646 339.8 138.315ZM311.378 138.315C311.378 114.954 294.442 98.894 274.78 98.894C255.118 98.894 238.181 114.954 238.181 138.315C238.181 161.481 255.118 177.736 274.78 177.736C294.442 177.736 311.378 161.481 311.378 138.315Z" fill="#FF302F"/>
<path d="M481.814 138.606C481.814 176.081 452.613 203.627 416.793 203.627C380.973 203.627 351.773 176.081 351.773 138.606C351.773 100.937 380.973 73.5859 416.793 73.5859C452.613 73.5859 481.814 100.84 481.814 138.606ZM453.294 138.606C453.294 115.246 436.358 99.1853 416.696 99.1853C397.034 99.1853 380.097 115.246 380.097 138.606C380.097 161.772 397.034 178.028 416.696 178.028C436.455 178.028 453.294 161.675 453.294 138.606Z" fill="#FFBA40"/>
<path d="M102.884 175.108C62.1004 175.108 30.1742 142.208 30.1742 101.424C30.1742 60.6404 62.1004 27.7408 102.884 27.7408C124.882 27.7408 140.943 36.4037 152.818 47.5L172.382 27.9355C155.835 12.0697 133.74 0 102.884 0C47.0133 0 0 45.5533 0 101.424C0 157.295 47.0133 202.848 102.884 202.848C133.058 202.848 155.835 192.92 173.648 174.426C191.947 156.127 197.592 130.43 197.592 109.6C197.592 103.079 196.814 96.3627 195.938 91.3986H102.884V118.458H169.17C167.223 135.395 161.87 146.978 153.986 154.862C144.447 164.498 129.36 175.108 102.884 175.108Z" fill="#3686F7"/>
</svg>
